<svg width="22" height="21" viewBox="0 0 22 21" fill="none" xmlns="http://www.w3.org/2000/svg">
<path d="M5.4005 20.4117L3.1404 18.8657C2.96015 18.7409 2.91855 18.4913 3.05028 18.318L8.45094 11.4892C8.61732 11.2743 8.51333 10.9623 8.24988 10.893L0.277152 9.51333C0.0761007 9.45787 -0.0417572 9.24989 0.0137053 9.04883L0.727785 6.30344C0.783247 6.08159 1.01896 5.96373 1.22695 6.03999L9.29674 9.45094C9.55325 9.548 9.82363 9.34694 9.80977 9.07656L8.78371 0.847319C8.77678 0.632402 8.9501 0.452148 9.16502 0.452148H11.7302C11.9381 0.452148 12.1115 0.625469 12.1115 0.833453L11.4182 9.0003C11.4182 9.26375 11.6816 9.45094 11.9312 9.36081L19.7168 6.10932C19.9109 6.03999 20.1189 6.13705 20.202 6.32424L21.2628 8.92404C21.346 9.13203 21.235 9.37468 21.0132 9.43707L12.777 10.8583C12.5136 10.9346 12.4096 11.2465 12.5829 11.4615L18.039 18.1516C18.1707 18.3111 18.143 18.5468 17.9836 18.6785L15.8552 20.4602C15.6819 20.6058 15.4184 20.5642 15.2936 20.377C13.7961 18.1585 12.3818 14.6713 10.8566 12.4182C10.7041 12.1894 10.3644 12.1963 10.2188 12.4182C8.74211 14.6644 7.38328 18.1031 5.94126 20.2939C5.8234 20.4741 5.58075 20.5226 5.40743 20.3978L5.4005 20.4117Z" fill="#5D828B"/>
</svg>
